<svg xmlns="http://www.w3.org/2000/svg" width="260" height="42" viewBox="0 0 260 42" fill="none">
    <g clip-path="url(#clip0_117_685)">
        <path d="M103.1 4.13H83.21C83.0596 4.13257 82.9162 4.19345 82.8098 4.29979C82.7035 4.40614 82.6426 4.54963 82.64 4.7V35.85C82.6426 35.9994 82.7038 36.1419 82.8105 36.2466C82.9171 36.3513 83.0606 36.41 83.21 36.41H88.73C88.8785 36.41 89.021 36.351 89.126 36.246C89.231 36.141 89.29 35.9985 89.29 35.85V23.5C89.2926 23.4248 89.3243 23.3536 89.3784 23.3014C89.4325 23.2491 89.5048 23.22 89.58 23.22H101.52C101.669 23.22 101.811 23.161 101.916 23.056C102.021 22.951 102.08 22.8085 102.08 22.66V18.42C102.08 18.2715 102.021 18.129 101.916 18.024C101.811 17.919 101.669 17.86 101.52 17.86H89.58C89.5048 17.86 89.4325 17.8309 89.3784 17.7786C89.3243 17.7264 89.2926 17.6552 89.29 17.58V9.8C89.2926 9.72483 89.3243 9.65361 89.3784 9.60137C89.4325 9.54913 89.5048 9.51995 89.58 9.52H103.1C103.174 9.52 103.246 9.50551 103.314 9.47737C103.382 9.44923 103.444 9.40798 103.496 9.35598C103.548 9.30398 103.589 9.24224 103.617 9.1743C103.646 9.10636 103.66 9.03354 103.66 8.96V4.7C103.66 4.55054 103.601 4.40706 103.497 4.30044C103.392 4.19383 103.249 4.13262 103.1 4.13Z" fill="white"/>
        <path d="M129.82 11.98C128.404 11.9152 127.004 12.295 125.815 13.0661C124.626 13.8373 123.708 14.961 123.19 16.28C123.172 16.329 123.14 16.3719 123.099 16.4038C123.057 16.4357 123.008 16.4554 122.956 16.4606C122.904 16.4658 122.851 16.4564 122.804 16.4333C122.757 16.4102 122.718 16.3744 122.69 16.33L120.61 12.84C120.535 12.7133 120.428 12.6081 120.3 12.5345C120.172 12.461 120.027 12.4215 119.88 12.42H117.26C117.111 12.4226 116.968 12.4838 116.863 12.5904C116.759 12.6971 116.7 12.8405 116.7 12.99V35.85C116.7 35.9985 116.759 36.141 116.864 36.246C116.969 36.351 117.111 36.41 117.26 36.41H122.52C122.594 36.4113 122.668 36.3978 122.737 36.3703C122.806 36.3427 122.869 36.3017 122.922 36.2496C122.976 36.1974 123.018 36.1352 123.046 36.0666C123.075 35.998 123.09 35.9244 123.09 35.85V22.85C123.09 18.47 125.34 17.21 127.09 17.21C129.39 17.21 130.93 18.57 130.93 22.79V35.85C130.93 35.9985 130.989 36.141 131.094 36.246C131.199 36.351 131.341 36.41 131.49 36.41H136.77C136.919 36.41 137.061 36.351 137.166 36.246C137.271 36.141 137.33 35.9985 137.33 35.85V20.92C137.4 15.77 134.4 11.98 129.82 11.98Z" fill="white"/>
        <path d="M152.36 31.5C151.895 31.5542 151.428 31.5809 150.96 31.58C150.613 31.6229 150.26 31.5936 149.924 31.4938C149.589 31.3939 149.278 31.2258 149.01 31C148.619 30.4477 148.438 29.7739 148.5 29.1V17.41C148.499 17.3724 148.505 17.3349 148.518 17.2998C148.532 17.2646 148.552 17.2326 148.578 17.2055C148.605 17.1784 148.636 17.1569 148.671 17.1422C148.705 17.1275 148.742 17.12 148.78 17.12H152.04C152.189 17.12 152.331 17.061 152.436 16.956C152.541 16.851 152.6 16.7085 152.6 16.56V12.99C152.6 12.8405 152.541 12.6971 152.437 12.5904C152.332 12.4838 152.189 12.4226 152.04 12.42H148.78C148.743 12.4214 148.706 12.4151 148.671 12.4015C148.637 12.388 148.605 12.3674 148.579 12.3411C148.553 12.3148 148.532 12.2834 148.518 12.2488C148.505 12.2142 148.499 12.1771 148.5 12.14V5.45C148.499 5.37545 148.479 5.30242 148.441 5.23807C148.404 5.17372 148.35 5.12026 148.285 5.08295C148.221 5.04563 148.148 5.02574 148.073 5.02523C147.998 5.02471 147.925 5.04358 147.86 5.08L142.52 8.21C142.392 8.28394 142.286 8.39038 142.212 8.51856C142.138 8.64674 142.1 8.79212 142.1 8.94V12.17C142.101 12.2071 142.095 12.2442 142.082 12.2788C142.068 12.3134 142.047 12.3448 142.021 12.3711C141.995 12.3974 141.963 12.418 141.929 12.4315C141.894 12.4451 141.857 12.4514 141.82 12.45H139.16C139.011 12.4526 138.868 12.5138 138.763 12.6204C138.659 12.7271 138.6 12.8705 138.6 13.02V16.59C138.6 16.7385 138.659 16.881 138.764 16.986C138.869 17.091 139.012 17.15 139.16 17.15H141.82C141.858 17.15 141.895 17.1575 141.93 17.1722C141.964 17.1869 141.996 17.2084 142.022 17.2355C142.048 17.2626 142.068 17.2946 142.082 17.3298C142.095 17.3649 142.101 17.4024 142.1 17.44V30.05C142.187 34.59 144.477 36.8567 148.97 36.85C150.104 36.8538 151.234 36.7093 152.33 36.42C152.48 36.3802 152.612 36.2918 152.706 36.1688C152.8 36.0457 152.851 35.8949 152.85 35.74V31.91C152.851 31.8487 152.839 31.7879 152.813 31.7322C152.788 31.6764 152.75 31.627 152.703 31.5877C152.656 31.5483 152.601 31.52 152.542 31.5049C152.482 31.4897 152.42 31.488 152.36 31.5Z" fill="white"/>
        <path d="M168.72 12.21C167.39 12.06 163.98 12.21 162.03 16.37C162.007 16.4163 161.971 16.4552 161.927 16.4823C161.883 16.5095 161.832 16.5239 161.78 16.5239C161.728 16.5239 161.677 16.5095 161.633 16.4823C161.589 16.4552 161.553 16.4163 161.53 16.37L159.42 12.83C159.346 12.7019 159.24 12.5957 159.111 12.5219C158.983 12.4482 158.838 12.4096 158.69 12.41H156.21C156.061 12.4126 155.918 12.4738 155.813 12.5804C155.709 12.6871 155.65 12.8305 155.65 12.98V35.85C155.65 35.9985 155.709 36.141 155.814 36.246C155.919 36.351 156.062 36.41 156.21 36.41H161.52C161.669 36.41 161.811 36.351 161.916 36.246C162.021 36.141 162.08 35.9985 162.08 35.85V22.1C162.08 19.1 165.15 17.25 168.69 18.25C168.752 18.2703 168.818 18.2757 168.883 18.2659C168.948 18.256 169.01 18.2312 169.063 18.1933C169.117 18.1554 169.16 18.1055 169.191 18.0476C169.222 17.9898 169.239 17.9255 169.24 17.86V12.74C169.235 12.6027 169.179 12.4721 169.083 12.374C168.987 12.2759 168.857 12.2174 168.72 12.21Z" fill="white"/>
        <path d="M190.26 30.87V20.47C190.326 19.2982 190.126 18.1267 189.676 17.0428C189.225 15.9589 188.536 14.9906 187.66 14.21C185.673 12.6456 183.186 11.8534 180.66 11.98C178.85 11.9514 177.054 12.2917 175.38 12.98C173.938 13.5564 172.682 14.5181 171.75 15.76C170.985 16.7567 170.529 17.9564 170.44 19.21C170.437 19.2681 170.446 19.3262 170.467 19.3807C170.487 19.4352 170.518 19.485 170.559 19.5271C170.599 19.5691 170.647 19.6026 170.701 19.6255C170.754 19.6483 170.812 19.6601 170.87 19.66H176.31C176.441 19.6598 176.568 19.6136 176.668 19.5296C176.769 19.4455 176.837 19.3289 176.86 19.2C176.927 18.5485 177.247 17.9492 177.75 17.53C178.477 16.9764 179.378 16.703 180.29 16.76C180.784 16.7184 181.282 16.7865 181.747 16.9593C182.212 17.1322 182.633 17.4056 182.98 17.76C183.574 18.5158 183.875 19.46 183.83 20.42V21.52C183.828 21.5935 183.797 21.6632 183.745 21.7152C183.693 21.7672 183.623 21.7975 183.55 21.8H180.88C177.32 21.8 174.6 22.4867 172.72 23.86C171.847 24.4779 171.136 25.2963 170.645 26.2465C170.154 27.1966 169.899 28.2506 169.9 29.32C169.851 30.3496 170.03 31.3774 170.424 32.3299C170.818 33.2824 171.418 34.1361 172.18 34.83C173.805 36.2355 175.903 36.9718 178.05 36.89C179.151 36.883 180.237 36.6402 181.236 36.1779C182.234 35.7156 183.123 35.0446 183.84 34.21C183.863 34.1779 183.895 34.1532 183.931 34.139C183.968 34.1248 184.008 34.1218 184.047 34.1304C184.085 34.1389 184.12 34.1586 184.147 34.187C184.175 34.2154 184.193 34.2512 184.2 34.29L184.63 36.01C184.661 36.1378 184.734 36.2516 184.838 36.3331C184.941 36.4146 185.068 36.4593 185.2 36.46H190.57C190.64 36.4605 190.709 36.4442 190.772 36.4125C190.834 36.3809 190.888 36.3348 190.929 36.2781C190.97 36.2213 190.997 36.1556 191.008 36.0864C191.018 36.0172 191.012 35.9464 190.99 35.88C190.497 34.2561 190.25 32.5672 190.26 30.87ZM183.83 27.77C183.874 28.3568 183.79 28.946 183.584 29.4974C183.379 30.0487 183.057 30.5491 182.64 30.9642C182.223 31.3793 181.721 31.6993 181.169 31.9023C180.616 32.1052 180.027 32.1863 179.44 32.14C177.58 32.14 176.3 31.22 176.3 29.21C176.3 27.2 177.84 25.5 181.44 25.5H183.52C183.557 25.5 183.593 25.5072 183.627 25.5213C183.661 25.5354 183.692 25.556 183.718 25.582C183.744 25.608 183.765 25.6389 183.779 25.6728C183.793 25.7068 183.8 25.7432 183.8 25.78L183.83 27.77Z" fill="white"/>
        <path d="M252.14 28.12H247.25C247.11 28.1217 246.976 28.1745 246.873 28.2685C246.77 28.3625 246.705 28.4912 246.69 28.63C246.583 29.4346 246.189 30.1735 245.58 30.71C244.776 31.3929 243.744 31.7497 242.69 31.71C242.028 31.7542 241.365 31.6286 240.765 31.3451C240.165 31.0616 239.647 30.6296 239.26 30.09C238.513 29.01 238.137 27.2333 238.13 24.76V24.09C238.13 21.65 238.51 19.8867 239.27 18.8C239.639 18.3332 240.101 17.9482 240.627 17.6696C241.152 17.391 241.73 17.2247 242.324 17.1815C242.917 17.1382 243.513 17.2189 244.074 17.4183C244.634 17.6178 245.147 17.9316 245.58 18.34C246.224 19.0305 246.615 19.9187 246.69 20.86C246.704 20.9998 246.769 21.1296 246.872 21.2253C246.975 21.3209 247.109 21.3759 247.25 21.38H252.15C252.227 21.38 252.302 21.3647 252.373 21.3348C252.443 21.3049 252.507 21.2611 252.56 21.206C252.613 21.151 252.655 21.0858 252.682 21.0143C252.71 20.9428 252.723 20.8665 252.72 20.79C252.665 18.4331 251.68 16.1936 249.98 14.56C248.001 12.7945 245.409 11.8754 242.76 12C241.252 11.9235 239.746 12.1794 238.348 12.7497C236.95 13.32 235.694 14.1906 234.67 15.3C232.595 17.769 231.524 20.928 231.67 24.15V24.57C231.67 28.41 232.67 31.41 234.67 33.57C235.705 34.6714 236.968 35.5344 238.37 36.099C239.772 36.6637 241.28 36.9165 242.79 36.84C244.521 36.8588 246.233 36.4754 247.79 35.72C249.251 35.0244 250.49 33.9375 251.37 32.58C252.125 31.4175 252.572 30.0825 252.67 28.7C252.675 28.5531 252.623 28.41 252.524 28.3015C252.425 28.1929 252.287 28.1278 252.14 28.12Z" fill="white"/>
        <path d="M112.09 12.42H106.78C106.471 12.42 106.22 12.6707 106.22 12.98V35.85C106.22 36.1593 106.471 36.41 106.78 36.41H112.09C112.399 36.41 112.65 36.1593 112.65 35.85V12.98C112.65 12.6707 112.399 12.42 112.09 12.42Z" fill="white"/>
        <path d="M109.44 10.36C111.423 10.36 113.03 8.7527 113.03 6.77C113.03 4.7873 111.423 3.18 109.44 3.18C107.457 3.18 105.85 4.7873 105.85 6.77C105.85 8.7527 107.457 10.36 109.44 10.36Z" fill="white"/>
        <path d="M228.52 12.42H214.76C214.723 12.4214 214.686 12.4151 214.651 12.4015C214.617 12.388 214.585 12.3674 214.559 12.3411C214.533 12.3148 214.512 12.2834 214.498 12.2488C214.485 12.2142 214.479 12.1771 214.48 12.14V10.5C214.48 8.24 215.68 7.1 218.09 7.1C218.609 7.09819 219.127 7.13495 219.64 7.21C219.7 7.21884 219.76 7.21448 219.818 7.19723C219.875 7.17997 219.929 7.15025 219.973 7.11017C220.018 7.07009 220.054 7.02063 220.077 6.96529C220.101 6.90996 220.112 6.85012 220.11 6.79V2.79C220.108 2.66091 220.063 2.53621 219.981 2.43629C219.899 2.33637 219.786 2.26717 219.66 2.24C218.737 2.03135 217.796 1.91742 216.85 1.9C214.478 1.7543 212.145 2.55232 210.36 4.12C209.563 4.94869 208.946 5.93372 208.548 7.01291C208.15 8.09209 207.981 9.24199 208.05 10.39V12.14C208.05 12.2143 208.021 12.2855 207.968 12.338C207.915 12.3905 207.844 12.42 207.77 12.42H200.77C200.733 12.4214 200.696 12.4151 200.661 12.4015C200.627 12.388 200.595 12.3674 200.569 12.3411C200.543 12.3148 200.522 12.2834 200.508 12.2488C200.495 12.2142 200.489 12.1771 200.49 12.14V10.5C200.49 8.24 201.69 7.1 204.1 7.1C204.615 7.09778 205.13 7.13456 205.64 7.21C205.7 7.21866 205.761 7.21424 205.819 7.19705C205.877 7.17985 205.931 7.15029 205.977 7.11039C206.022 7.07049 206.059 7.0212 206.083 6.9659C206.108 6.91059 206.121 6.85059 206.12 6.79V2.79C206.118 2.66091 206.073 2.53621 205.991 2.43629C205.909 2.33637 205.796 2.26717 205.67 2.24C204.747 2.03203 203.806 1.91811 202.86 1.9C200.488 1.7543 198.155 2.55232 196.37 4.12C195.573 4.94869 194.956 5.93372 194.558 7.01291C194.16 8.09209 193.991 9.24199 194.06 10.39V35.85C194.06 35.9985 194.119 36.141 194.224 36.246C194.329 36.351 194.472 36.41 194.62 36.41H199.92C200.069 36.41 200.213 36.3513 200.32 36.2466C200.426 36.1419 200.487 35.9994 200.49 35.85V17.41C200.489 17.3724 200.495 17.3349 200.508 17.2998C200.522 17.2646 200.542 17.2326 200.568 17.2055C200.595 17.1784 200.626 17.1569 200.661 17.1422C200.695 17.1275 200.732 17.12 200.77 17.12H207.77C207.845 17.1226 207.916 17.1543 207.969 17.2084C208.021 17.2625 208.05 17.3348 208.05 17.41V35.85C208.05 35.9985 208.109 36.141 208.214 36.246C208.319 36.351 208.461 36.41 208.61 36.41H213.92C214.069 36.41 214.211 36.351 214.316 36.246C214.421 36.141 214.48 35.9985 214.48 35.85V17.41C214.479 17.3724 214.485 17.3349 214.498 17.2998C214.512 17.2646 214.532 17.2326 214.558 17.2055C214.585 17.1784 214.616 17.1569 214.651 17.1422C214.685 17.1275 214.722 17.12 214.76 17.12H218.31C218.907 17.1241 219.494 16.9687 220.01 16.67L222.23 15.39C222.275 15.3628 222.326 15.3483 222.379 15.348C222.431 15.3478 222.483 15.3617 222.528 15.3884C222.573 15.4151 222.61 15.4535 222.635 15.4995C222.66 15.5456 222.672 15.5976 222.67 15.65V35.85C222.673 35.9994 222.734 36.1419 222.84 36.2466C222.947 36.3513 223.091 36.41 223.24 36.41H228.52C228.669 36.41 228.811 36.351 228.916 36.246C229.021 36.141 229.08 35.9985 229.08 35.85V12.99C229.08 12.8405 229.021 12.6971 228.917 12.5904C228.812 12.4838 228.669 12.4226 228.52 12.42Z" fill="white"/>
        <path d="M225.89 3.21C225.18 3.21793 224.489 3.43596 223.903 3.83655C223.318 4.23713 222.864 4.80231 222.599 5.4607C222.335 6.11908 222.271 6.84113 222.416 7.53566C222.562 8.23019 222.91 8.86603 223.416 9.36288C223.923 9.85973 224.566 10.1953 225.263 10.3272C225.96 10.4591 226.681 10.3814 227.334 10.104C227.987 9.82653 228.543 9.36176 228.932 8.76836C229.321 8.17497 229.526 7.47957 229.52 6.77C229.516 6.2977 229.419 5.83081 229.234 5.3961C229.05 4.96138 228.781 4.56738 228.444 4.23667C228.107 3.90596 227.707 3.64504 227.269 3.46886C226.831 3.29269 226.362 3.20472 225.89 3.21Z" fill="white"/>
        <path d="M34.07 38.84L20.25 30.84C19.8152 30.589 19.322 30.4568 18.82 30.4568C18.318 30.4568 17.8248 30.589 17.39 30.84L13.1 33.31C12.6666 33.565 12.1729 33.6995 11.67 33.6995C11.1671 33.6995 10.6734 33.565 10.24 33.31L2.33001 28.77C2.27259 28.7356 2.20692 28.7175 2.14001 28.7175C2.07309 28.7175 2.00743 28.7356 1.95001 28.77L0.950007 29.37C0.833812 29.4378 0.737416 29.5349 0.670423 29.6516C0.603429 29.7683 0.568176 29.9005 0.568176 30.035C0.568176 30.1695 0.603429 30.3017 0.670423 30.4184C0.737416 30.5351 0.833812 30.6322 0.950007 30.7L10.29 36.09C10.7248 36.341 11.218 36.4732 11.72 36.4732C12.222 36.4732 12.7152 36.341 13.15 36.09L17.44 33.61C17.8748 33.359 18.368 33.2268 18.87 33.2268C19.372 33.2268 19.8652 33.359 20.3 33.61L34.12 41.61C34.5548 41.861 35.048 41.9932 35.55 41.9932C36.052 41.9932 36.5452 41.861 36.98 41.61L46.27 36.21C46.3864 36.1435 46.4832 36.0475 46.5504 35.9316C46.6177 35.8157 46.6532 35.684 46.6532 35.55C46.6532 35.416 46.6177 35.2843 46.5504 35.1684C46.4832 35.0525 46.3864 34.9565 46.27 34.89L45.27 34.28C45.2126 34.2456 45.1469 34.2275 45.08 34.2275C45.0131 34.2275 44.9474 34.2456 44.89 34.28L36.98 38.85C36.5384 39.1089 36.0355 39.2445 35.5236 39.2428C35.0118 39.241 34.5098 39.1019 34.07 38.84Z" fill="white"/>
        <path d="M63.9 28.77L56 33.33C55.5647 33.5849 55.0694 33.7192 54.565 33.7192C54.0606 33.7192 53.5653 33.5849 53.13 33.33L45.22 28.77C45.1626 28.7356 45.0969 28.7175 45.03 28.7175C44.9631 28.7175 44.8974 28.7356 44.84 28.77L36.93 33.33C36.4966 33.585 36.0029 33.7195 35.5 33.7195C34.9972 33.7195 34.5034 33.585 34.07 33.33L20.25 25.33C19.8152 25.079 19.3221 24.9468 18.82 24.9468C18.318 24.9468 17.8248 25.079 17.39 25.33L13.1 27.8C12.6652 28.051 12.1721 28.1832 11.67 28.1832C11.168 28.1832 10.6748 28.051 10.24 27.8L2.33002 23.27C2.2726 23.2356 2.20693 23.2175 2.14002 23.2175C2.0731 23.2175 2.00744 23.2356 1.95002 23.27L0.950017 23.87C0.826205 23.9303 0.721093 24.023 0.645912 24.1384C0.570731 24.2538 0.528307 24.3874 0.523173 24.525C0.518038 24.6626 0.550386 24.799 0.61676 24.9197C0.683134 25.0403 0.78104 25.1407 0.900017 25.21L10.24 30.6C10.6748 30.851 11.168 30.9832 11.67 30.9832C12.1721 30.9832 12.6652 30.851 13.1 30.6L17.39 28.13C17.8248 27.879 18.318 27.7468 18.82 27.7468C19.3221 27.7468 19.8152 27.879 20.25 28.13L34.07 36.13C34.5048 36.381 34.998 36.5132 35.5 36.5132C36.002 36.5132 36.4952 36.381 36.93 36.13L44.84 31.56C44.8974 31.5256 44.9631 31.5075 45.03 31.5075C45.0969 31.5075 45.1626 31.5256 45.22 31.56L53.13 36.13C53.5666 36.3809 54.0614 36.513 54.565 36.513C55.0686 36.513 55.5634 36.3809 56 36.13L65.33 30.74C65.4462 30.6722 65.5426 30.5751 65.6096 30.4584C65.6766 30.3417 65.7119 30.2095 65.7119 30.075C65.7119 29.9405 65.6766 29.8083 65.6096 29.6916C65.5426 29.5749 65.4462 29.4778 65.33 29.41L64.33 28.81C64.2703 28.7617 64.1976 28.7322 64.1211 28.725C64.0446 28.7179 63.9677 28.7336 63.9 28.77Z" fill="white"/>
        <path d="M53.13 27.83L31.69 15.45C31.5922 15.3953 31.5106 15.3155 31.4539 15.2189C31.3972 15.1222 31.3673 15.0121 31.3673 14.9C31.3673 14.7879 31.3972 14.6778 31.4539 14.5811C31.5106 14.4845 31.5922 14.4047 31.69 14.35C32.1248 14.099 32.618 13.9668 33.12 13.9668C33.622 13.9668 34.1152 14.099 34.55 14.35L53.13 25.08C53.5666 25.3309 54.0614 25.463 54.565 25.463C55.0686 25.463 55.5634 25.3309 56 25.08L65.33 19.69C65.4464 19.6235 65.5432 19.5275 65.6105 19.4116C65.6777 19.2957 65.7132 19.164 65.7132 19.03C65.7132 18.896 65.6777 18.7643 65.6105 18.6484C65.5432 18.5325 65.4464 18.4365 65.33 18.37L34.52 0.589998C34.0852 0.338981 33.592 0.206831 33.09 0.206831C32.588 0.206831 32.0948 0.338981 31.66 0.589998L0.900017 18.37C0.783624 18.4365 0.686875 18.5325 0.619582 18.6484C0.552289 18.7643 0.516846 18.896 0.516846 19.03C0.516846 19.164 0.552289 19.2957 0.619582 19.4116C0.686875 19.5275 0.783624 19.6235 0.900017 19.69L10.24 25.08C10.6748 25.331 11.168 25.4632 11.67 25.4632C12.1721 25.4632 12.6652 25.331 13.1 25.08L17.39 22.61C17.8234 22.355 18.3172 22.2205 18.82 22.2205C19.3229 22.2205 19.8166 22.355 20.25 22.61L34.07 30.61C34.5048 30.861 34.998 30.9932 35.5 30.9932C36.002 30.9932 36.4952 30.861 36.93 30.61L44.84 26.05C44.8974 26.0156 44.9631 25.9975 45.03 25.9975C45.0969 25.9975 45.1626 26.0156 45.22 26.05L53.13 30.61C53.5666 30.8609 54.0614 30.993 54.565 30.993C55.0686 30.993 55.5634 30.8609 56 30.61L65.33 25.21C65.4464 25.1435 65.5432 25.0475 65.6105 24.9316C65.6777 24.8157 65.7132 24.684 65.7132 24.55C65.7132 24.416 65.6777 24.2843 65.6105 24.1684C65.5432 24.0525 65.4464 23.9565 65.33 23.89L64.33 23.28C64.2701 23.2476 64.2031 23.2307 64.135 23.2307C64.0669 23.2307 63.9999 23.2476 63.94 23.28L56.04 27.84C55.5978 28.0969 55.0951 28.2313 54.5837 28.2296C54.0722 28.2278 53.5705 28.0899 53.13 27.83Z" fill="white"/>
    </g>
    <defs>
        <clipPath id="clip0_117_685">
            <rect width="252.2" height="41.76" fill="white" transform="translate(0.52002 0.209999)"/>
        </clipPath>
    </defs>
</svg>
